<?xml version="1.0" encoding="utf-8"?>
<!-- Generator: Adobe Illustrator 15.0.2, SVG Export Plug-In . SVG Version: 6.00 Build 0)  -->
<!DOCTYPE svg PUBLIC "-//W3C//DTD SVG 1.1//EN" "http://www.w3.org/Graphics/SVG/1.1/DTD/svg11.dtd">
<svg version="1.1" id="Layer_1" xmlns="http://www.w3.org/2000/svg" xmlns:xlink="http://www.w3.org/1999/xlink" x="0px" y="0px"
	 width="512px" height="512px" viewBox="0 0 512 512" enable-background="new 0 0 512 512" xml:space="preserve">
<path d="M394.767,33c0,0-100.478,0-133.97,0c-60.061,0-116.585,45.503-116.585,98.211c0,53.863,40.941,97.333,102.044,97.333
	c4.249,0,8.378-0.085,12.42-0.376c-3.964,7.593-6.8,16.144-6.8,25.021c0,14.969,8.052,27.105,18.233,37.012
	c-7.692,0-15.12,0.224-23.227,0.224c-74.391-0.001-131.65,47.38-131.65,96.511c0,48.391,62.771,78.656,137.167,78.656
	c84.812,0,131.653-48.122,131.653-96.514c0-38.801-11.446-62.036-46.843-87.067c-12.106-8.571-35.266-29.418-35.266-41.672
	c0-14.36,4.098-21.434,25.714-38.323c22.156-17.312,37.837-41.651,37.837-69.958c0-33.703-15.011-66.549-43.188-77.386h42.479
	L394.767,33z M347.974,360.729c1.063,4.486,1.644,9.104,1.644,13.814c0,39.1-25.195,69.655-97.487,69.655
	c-51.421,0-88.558-32.552-88.558-71.65c0-38.321,46.063-70.222,97.483-69.666c12,0.127,23.184,2.058,33.334,5.345
	C322.301,327.641,342.325,338.607,347.974,360.729z M265.643,214.888c-34.519-1.032-67.316-38.613-73.274-83.93
	c-5.958-45.333,17.185-80.021,51.694-78.995C278.564,53,311.379,89.37,317.34,134.692
	C323.293,180.022,300.145,215.921,265.643,214.888z"/>
</svg>
