<?xml version="1.0" encoding="utf-8"?>
<!-- Generator: Adobe Illustrator 15.0.2, SVG Export Plug-In . SVG Version: 6.00 Build 0)  -->
<!DOCTYPE svg PUBLIC "-//W3C//DTD SVG 1.1//EN" "http://www.w3.org/Graphics/SVG/1.1/DTD/svg11.dtd">
<svg version="1.1" id="Layer_1" xmlns="http://www.w3.org/2000/svg" xmlns:xlink="http://www.w3.org/1999/xlink" x="0px" y="0px"
	 width="512px" height="512px" viewBox="0 0 512 512" enable-background="new 0 0 512 512" xml:space="preserve">
<path d="M256.001,96.606V64h64V32c0-17.673-14.327-32-32.001-32h-95.999c-17.673,0-32,14.327-32,32v32h64v32.606
	c-107.399,8.169-192,97.901-192,207.394c0,114.875,93.125,208,208,208s208-93.125,208-208
	C448.001,194.508,363.4,104.776,256.001,96.606z M353.138,417.137C322.917,447.357,282.739,464,240.001,464
	c-42.738,0-82.917-16.643-113.137-46.863c-30.22-30.22-46.863-70.4-46.863-113.137s16.643-82.917,46.863-113.137
	c29.02-29.019,67.224-45.509,108.057-46.774L224.082,301.1c-0.93,13.145,6.232,18.9,15.918,18.9s16.85-5.756,15.918-18.9
	L245.08,144.088c40.833,1.266,79.038,17.756,108.058,46.775c30.221,30.22,46.863,70.401,46.863,113.137
	S383.358,386.917,353.138,417.137z"/>
</svg>
