<?xml version="1.0" encoding="utf-8"?>
<!-- Generated by IcoMoon.io -->
<!DOCTYPE svg PUBLIC "-//W3C//DTD SVG 1.1//EN" "http://www.w3.org/Graphics/SVG/1.1/DTD/svg11.dtd">
<svg version="1.1" xmlns="http://www.w3.org/2000/svg" xmlns:xlink="http://www.w3.org/1999/xlink" width="32" height="32" viewBox="0 0 32 32">
<g>
</g>
	<path d="M27.904 27.232v-11.959c0-3.669-2.677-6.644-5.979-6.644-1.879 0-3.554 1.794-4.651 3.3v-3.3h-5.315v18.602h5.315v-10.63c0-1.468 1.19-2.658 2.657-2.658s2.657 1.19 2.657 2.658v10.63h5.315z" fill="#000000" />
	<path d="M3.986 8.63h5.315v18.602h-5.315v-18.602z" fill="#000000" />
	<path d="M9.301 3.315c0 1.468-1.19 2.657-2.657 2.657s-2.657-1.19-2.657-2.657c0-1.468 1.19-2.657 2.657-2.657 1.468 0 2.657 1.19 2.657 2.657z" fill="#000000" />
</svg>
