<?xml version="1.0" encoding="utf-8"?>
<!-- Generated by IcoMoon.io -->
<!DOCTYPE svg PUBLIC "-//W3C//DTD SVG 1.1//EN" "http://www.w3.org/Graphics/SVG/1.1/DTD/svg11.dtd">
<svg version="1.1" xmlns="http://www.w3.org/2000/svg" xmlns:xlink="http://www.w3.org/1999/xlink" width="32" height="32" viewBox="0 0 32 32">
<g>
</g>
	<path d="M1.395 15.969l3.647 4.001-0.032-3.872h1.791v6.887l-1.223 0.268-3.658-3.969 0.032 3.852h-1.791v-6.887l1.234-0.279z" fill="#000000" />
	<path d="M13.137 20.624c0 1.566-1.18 2.671-2.864 2.671-1.62 0-2.757-1.062-2.757-2.575 0-1.609 1.191-2.736 2.896-2.736 1.577 0 2.725 1.105 2.725 2.639zM9.307 20.56c0 0.761 0.483 1.362 1.084 1.362 0.579 0 0.944-0.451 0.944-1.159 0-0.783-0.451-1.373-1.051-1.373-0.579 0-0.976 0.472-0.976 1.169z" fill="#000000" />
	<path d="M19.472 20.624c0 1.566-1.18 2.671-2.864 2.671-1.62 0-2.757-1.062-2.757-2.575 0-1.609 1.191-2.736 2.896-2.736 1.577 0 2.725 1.105 2.725 2.639zM15.643 20.56c0 0.761 0.483 1.362 1.084 1.362 0.579 0 0.944-0.451 0.944-1.159 0-0.783-0.45-1.373-1.051-1.373-0.579 0-0.976 0.472-0.976 1.169z" fill="#000000" />
	<path d="M21.978 13.649v6.16l1.51-1.641 2.050-0-1.94 2.199 2.081 2.768h-2.092l-1.245-1.77-0.386 0.483v1.287h-1.77v-9.486h1.791z" fill="#000000" />
	<path d="M31.217 21.214c0 0.815 0.075 0.923 0.622 0.923l-0.215 1.040c-0.376 0.086-0.558 0.107-0.804 0.107-0.676 0-1.009-0.215-1.234-0.805-0.483 0.569-0.987 0.815-1.663 0.815-0.665 0-1.276-0.311-1.534-0.783-0.161-0.3-0.214-0.654-0.214-1.341v-3.003h1.791v2.735c0 0.579 0.215 0.858 0.654 0.858 0.3 0 0.494-0.097 0.804-0.397v-3.196h1.791v3.046z" fill="#000000" />
	<path d="M19.292 14.489c-0.008-0.083 0.051-0.171 0.131-0.195l0.188-0.057c0.080-0.024 0.126-0.109 0.102-0.19l-0.067-0.223c-0.024-0.080-0.11-0.126-0.19-0.102l-0.188 0.057c-0.080 0.024-0.178-0.017-0.216-0.091l-0.171-0.276c-0.049-0.068-0.042-0.174 0.015-0.235l0.135-0.143c0.058-0.061 0.055-0.158-0.006-0.215l-0.169-0.16c-0.061-0.058-0.158-0.055-0.215 0.006l-0.135 0.143c-0.057 0.061-0.162 0.074-0.233 0.029l-0.285-0.155c-0.076-0.034-0.123-0.129-0.104-0.211l0.045-0.191c0.019-0.082-0.032-0.164-0.113-0.183l-0.227-0.053c-0.081-0.019-0.164 0.032-0.183 0.113l-0.045 0.191c-0.019 0.081-0.104 0.145-0.187 0.142l-0.324 0.010c-0.083 0.008-0.171-0.050-0.195-0.131l-0.056-0.188c-0.024-0.080-0.109-0.126-0.19-0.102l-0.223 0.067c-0.080 0.024-0.126 0.11-0.102 0.19l0.056 0.188c0.024 0.080-0.017 0.178-0.091 0.217l-0.276 0.171c-0.068 0.049-0.174 0.042-0.235-0.016l-0.143-0.135c-0.061-0.058-0.158-0.055-0.215 0.006l-0.16 0.17c-0.058 0.061-0.055 0.158 0.006 0.215l0.143 0.135c0.061 0.057 0.074 0.162 0.029 0.233l-0.155 0.285c-0.034 0.076-0.129 0.123-0.211 0.104l-0.191-0.045c-0.082-0.019-0.164 0.032-0.183 0.113l-0.054 0.227c-0.019 0.082 0.032 0.164 0.113 0.183l0.191 0.045c0.081 0.019 0.145 0.104 0.142 0.187l0.010 0.324c0.008 0.083-0.051 0.171-0.131 0.195l-0.188 0.056c-0.080 0.024-0.126 0.11-0.102 0.19l0.067 0.223c0.024 0.080 0.109 0.126 0.19 0.102l0.188-0.056c0.080-0.024 0.178 0.017 0.217 0.091l0.171 0.276c0.049 0.068 0.042 0.174-0.016 0.235l-0.135 0.143c-0.058 0.061-0.055 0.158 0.006 0.215l0.169 0.16c0.061 0.057 0.158 0.054 0.215-0.006l0.135-0.143c0.057-0.061 0.162-0.074 0.233-0.029l0.285 0.154c0.076 0.034 0.123 0.129 0.104 0.211l-0.045 0.191c-0.019 0.081 0.032 0.164 0.113 0.183l0.226 0.054c0.082 0.019 0.164-0.032 0.184-0.113l0.045-0.191c0.019-0.081 0.103-0.145 0.187-0.142l0.324-0.010c0.083-0.008 0.171 0.051 0.195 0.131l0.056 0.188c0.024 0.080 0.11 0.126 0.19 0.102l0.223-0.067c0.080-0.024 0.126-0.109 0.102-0.19l-0.056-0.188c-0.024-0.080 0.017-0.178 0.091-0.217l0.276-0.171c0.068-0.049 0.173-0.042 0.235 0.016l0.143 0.135c0.061 0.058 0.158 0.055 0.215-0.006l0.16-0.169c0.058-0.061 0.055-0.158-0.006-0.215l-0.143-0.135c-0.061-0.058-0.074-0.162-0.029-0.233l0.154-0.285c0.035-0.076 0.129-0.123 0.211-0.104l0.191 0.045c0.082 0.019 0.164-0.032 0.183-0.113l0.053-0.226c0.019-0.082-0.032-0.164-0.113-0.183l-0.191-0.045c-0.082-0.019-0.145-0.103-0.142-0.187l-0.009-0.324zM17.628 15.238c-0.288 0.305-0.768 0.319-1.073 0.032-0.305-0.288-0.319-0.768-0.032-1.073 0.288-0.305 0.768-0.319 1.073-0.032 0.305 0.288 0.319 0.768 0.032 1.073z" fill="#000000" />
	<path d="M21.921 10.777c-0.002-0.067 0.049-0.134 0.114-0.149l0.153-0.036c0.065-0.015 0.107-0.081 0.091-0.146l-0.042-0.181c-0.015-0.065-0.081-0.106-0.146-0.091l-0.153 0.035c-0.065 0.015-0.141-0.022-0.168-0.084l-0.123-0.229c-0.036-0.057-0.025-0.141 0.024-0.186l0.115-0.108c0.049-0.046 0.052-0.123 0.006-0.172l-0.127-0.136c-0.046-0.049-0.123-0.052-0.172-0.006l-0.115 0.107c-0.049 0.046-0.133 0.051-0.188 0.012l-0.22-0.138c-0.059-0.031-0.092-0.109-0.072-0.174l0.046-0.15c0.019-0.064-0.017-0.133-0.081-0.152l-0.178-0.054c-0.064-0.019-0.133 0.017-0.152 0.081l-0.046 0.15c-0.019 0.064-0.090 0.111-0.157 0.104l-0.259-0.009c-0.067 0.002-0.134-0.049-0.15-0.114l-0.035-0.153c-0.015-0.065-0.081-0.106-0.146-0.091l-0.181 0.042c-0.065 0.015-0.106 0.081-0.091 0.146l0.035 0.153c0.015 0.065-0.023 0.141-0.084 0.168l-0.229 0.123c-0.057 0.036-0.141 0.025-0.186-0.024l-0.108-0.115c-0.046-0.049-0.123-0.052-0.172-0.006l-0.136 0.127c-0.049 0.046-0.051 0.124-0.006 0.172l0.108 0.115c0.046 0.049 0.051 0.134 0.012 0.188l-0.138 0.22c-0.031 0.059-0.109 0.092-0.174 0.072l-0.15-0.046c-0.064-0.019-0.132 0.017-0.152 0.081l-0.054 0.178c-0.019 0.064 0.017 0.133 0.081 0.152l0.151 0.046c0.064 0.020 0.111 0.090 0.104 0.157l-0.009 0.259c0.002 0.067-0.049 0.134-0.114 0.149l-0.153 0.036c-0.065 0.015-0.106 0.081-0.091 0.146l0.042 0.181c0.015 0.065 0.081 0.106 0.146 0.091l0.153-0.035c0.065-0.015 0.141 0.023 0.168 0.084l0.123 0.229c0.035 0.057 0.025 0.141-0.024 0.187l-0.115 0.108c-0.049 0.046-0.051 0.123-0.006 0.172l0.127 0.136c0.046 0.049 0.123 0.052 0.172 0.006l0.115-0.108c0.049-0.046 0.133-0.051 0.188-0.012l0.22 0.138c0.059 0.031 0.092 0.109 0.072 0.173l-0.046 0.15c-0.019 0.064 0.017 0.133 0.081 0.152l0.178 0.054c0.064 0.019 0.133-0.017 0.152-0.081l0.046-0.15c0.019-0.064 0.090-0.111 0.157-0.104l0.259 0.009c0.067-0.002 0.134 0.049 0.149 0.114l0.035 0.153c0.015 0.065 0.081 0.106 0.146 0.091l0.181-0.042c0.065-0.015 0.106-0.081 0.091-0.146l-0.035-0.153c-0.015-0.065 0.023-0.141 0.084-0.168l0.229-0.123c0.057-0.035 0.141-0.025 0.186 0.024l0.107 0.115c0.046 0.049 0.123 0.052 0.172 0.006l0.136-0.127c0.049-0.046 0.052-0.123 0.006-0.172l-0.107-0.115c-0.046-0.049-0.051-0.133-0.012-0.188l0.138-0.22c0.031-0.059 0.11-0.092 0.174-0.072l0.15 0.046c0.064 0.019 0.133-0.017 0.152-0.081l0.054-0.178c0.020-0.064-0.017-0.133-0.081-0.152l-0.15-0.046c-0.064-0.019-0.111-0.090-0.104-0.157l0.009-0.259zM20.556 11.29c-0.245 0.229-0.629 0.216-0.858-0.029-0.229-0.245-0.216-0.629 0.029-0.858 0.245-0.229 0.629-0.216 0.858 0.029 0.229 0.245 0.216 0.629-0.029 0.858z" fill="#000000" />
	<path d="M26.773 12.736c-0.003-0.083 0.060-0.167 0.141-0.186l0.19-0.045c0.081-0.019 0.132-0.101 0.113-0.182l-0.053-0.225c-0.019-0.081-0.101-0.132-0.182-0.113l-0.19 0.045c-0.081 0.019-0.175-0.027-0.209-0.103l-0.154-0.284c-0.044-0.070-0.031-0.175 0.029-0.232l0.143-0.134c0.061-0.057 0.064-0.153 0.006-0.214l-0.159-0.168c-0.057-0.061-0.154-0.064-0.214-0.006l-0.142 0.134c-0.061 0.057-0.166 0.064-0.233 0.015l-0.273-0.17c-0.074-0.038-0.114-0.135-0.091-0.215l0.056-0.187c0.024-0.080-0.022-0.165-0.101-0.189l-0.221-0.067c-0.080-0.024-0.165 0.022-0.189 0.101l-0.056 0.187c-0.024 0.080-0.111 0.138-0.194 0.13l-0.322-0.010c-0.083 0.003-0.167-0.060-0.186-0.141l-0.045-0.19c-0.019-0.081-0.101-0.132-0.182-0.113l-0.225 0.053c-0.081 0.019-0.132 0.101-0.113 0.182l0.045 0.19c0.019 0.081-0.027 0.175-0.103 0.21l-0.283 0.153c-0.070 0.044-0.175 0.031-0.232-0.029l-0.134-0.142c-0.057-0.061-0.154-0.063-0.214-0.007l-0.168 0.159c-0.061 0.057-0.064 0.154-0.006 0.214l0.134 0.142c0.057 0.061 0.064 0.165 0.015 0.233l-0.17 0.274c-0.039 0.074-0.136 0.114-0.215 0.091l-0.186-0.056c-0.080-0.024-0.165 0.022-0.189 0.101l-0.066 0.222c-0.024 0.080 0.022 0.165 0.101 0.189l0.187 0.056c0.080 0.024 0.138 0.112 0.13 0.194l-0.010 0.322c0.003 0.083-0.060 0.167-0.141 0.186l-0.19 0.045c-0.081 0.019-0.132 0.101-0.113 0.182l0.053 0.225c0.019 0.081 0.101 0.132 0.182 0.113l0.19-0.045c0.081-0.019 0.175 0.028 0.21 0.103l0.153 0.283c0.045 0.070 0.032 0.175-0.029 0.232l-0.142 0.134c-0.061 0.057-0.064 0.154-0.006 0.214l0.159 0.168c0.057 0.061 0.153 0.063 0.214 0.006l0.142-0.134c0.061-0.057 0.166-0.064 0.233-0.015l0.274 0.17c0.074 0.039 0.115 0.136 0.091 0.215l-0.056 0.186c-0.024 0.080 0.022 0.165 0.102 0.189l0.222 0.067c0.080 0.024 0.164-0.022 0.189-0.101l0.056-0.187c0.024-0.080 0.111-0.138 0.194-0.13l0.322 0.010c0.083-0.003 0.167 0.060 0.186 0.141l0.045 0.19c0.019 0.081 0.101 0.132 0.182 0.113l0.225-0.053c0.081-0.019 0.132-0.101 0.113-0.182l-0.045-0.189c-0.019-0.081 0.028-0.175 0.103-0.209l0.283-0.153c0.070-0.045 0.175-0.031 0.232 0.029l0.134 0.142c0.057 0.061 0.153 0.063 0.214 0.006l0.168-0.159c0.061-0.057 0.064-0.153 0.006-0.214l-0.134-0.143c-0.057-0.061-0.064-0.165-0.015-0.233l0.17-0.274c0.039-0.074 0.136-0.114 0.215-0.090l0.187 0.056c0.080 0.024 0.165-0.022 0.189-0.102l0.067-0.222c0.024-0.080-0.022-0.165-0.102-0.189l-0.187-0.056c-0.080-0.024-0.138-0.111-0.13-0.194l0.009-0.322zM25.016 13.313c-0.267 0.251-0.686 0.238-0.937-0.028-0.251-0.266-0.238-0.686 0.028-0.937 0.266-0.251 0.686-0.238 0.937 0.028 0.251 0.267 0.238 0.686-0.028 0.937z" fill="#000000" />
	<path d="M30.672 13.461l-0.281-0.275c-0.062-0.061-0.163-0.060-0.224 0.003l-0.178 0.182c-0.061 0.062-0.165 0.085-0.231 0.049-0.066-0.035-0.249-0.176-0.242-0.263l0.019-0.254c0.006-0.087-0.059-0.164-0.146-0.17l-0.392-0.030c-0.087-0.007-0.163 0.059-0.17 0.146l-0.019 0.253c-0.007 0.087-0.073 0.171-0.147 0.187-0.074 0.016-0.302 0.024-0.353-0.047l-0.148-0.207c-0.051-0.071-0.15-0.087-0.221-0.036l-0.319 0.229c-0.071 0.051-0.087 0.15-0.036 0.221l0.148 0.207c0.051 0.071 0.054 0.177 0.008 0.236-0.047 0.059-0.105 0.215-0.235 0.219l-0.312-0.090c-0.084-0.022-0.171 0.030-0.193 0.114l-0.098 0.381c-0.022 0.085 0.030 0.171 0.114 0.193l0.247 0.063c0.084 0.022 0.156 0.101 0.158 0.178 0.003 0.076-0.029 0.301-0.107 0.339l-0.229 0.11c-0.078 0.038-0.112 0.133-0.074 0.211l0.17 0.354c0.038 0.078 0.133 0.112 0.211 0.074l0.229-0.11c0.078-0.038 0.184-0.023 0.235 0.033 0.050 0.056 0.172 0.25 0.136 0.33l-0.105 0.232c-0.036 0.079-0 0.174 0.079 0.21l0.358 0.162c0.079 0.036 0.174 0 0.21-0.079l0.105-0.232c0.036-0.079 0.084-0.14 0.108-0.136 0 0 0 0 0.022 0.004 0.117 0.019 0.187 0.019 0.187 0.019 0.087 0 0.178 0.069 0.201 0.153l0.069 0.245c0.023 0.084 0.112 0.133 0.195 0.11l0.378-0.106c0.084-0.024 0.133-0.111 0.11-0.195l-0.069-0.245c-0.024-0.084 0.009-0.185 0.074-0.225 0.064-0.040 0.276-0.126 0.348-0.077l0.21 0.144c0.072 0.049 0.171 0.031 0.22-0.041l0.222-0.324c0.049-0.072 0.031-0.171-0.041-0.22l-0.21-0.144c-0.072-0.049-0.108-0.157-0.080-0.239 0 0 0.023-0.067 0.042-0.184 0.004-0.021 0.004-0.021 0.004-0.021 0.003-0.024 0.076-0.050 0.163-0.059l0.253-0.025c0.087-0.008 0.151-0.086 0.142-0.173l-0.039-0.391c-0.008-0.087-0.086-0.151-0.173-0.142l-0.253 0.025c-0.087 0.009-0.232-0.169-0.268-0.235-0.037-0.066-0.017-0.171 0.044-0.233l0.178-0.182c0.061-0.062 0.059-0.163-0.003-0.224zM29.633 14.958c-0.055 0.333-0.369 0.558-0.702 0.503-0.333-0.055-0.558-0.369-0.503-0.702 0.055-0.333 0.369-0.558 0.702-0.503 0.333 0.055 0.558 0.369 0.504 0.702z" fill="#000000" />
</svg>
