<?xml version="1.0" encoding="utf-8"?>
<!-- Generator: Adobe Illustrator 15.0.2, SVG Export Plug-In . SVG Version: 6.00 Build 0)  -->
<!DOCTYPE svg PUBLIC "-//W3C//DTD SVG 1.1//EN" "http://www.w3.org/Graphics/SVG/1.1/DTD/svg11.dtd">
<svg version="1.1" id="Layer_1" xmlns="http://www.w3.org/2000/svg" xmlns:xlink="http://www.w3.org/1999/xlink" x="0px" y="0px"
	 width="512px" height="512px" viewBox="0 0 512 512" enable-background="new 0 0 512 512" xml:space="preserve">
<path d="M512,192H320l71.765-71.765C355.5,83.972,307.285,64,256,64s-99.5,19.972-135.765,56.235C83.972,156.5,64,204.715,64,256
	s19.972,99.5,56.235,135.766C156.5,428.028,204.715,448,256,448s99.5-19.972,135.764-56.236c3.028-3.027,5.931-6.146,8.729-9.334
	l48.16,42.142C401.729,478.154,332.82,512,256,512C114.615,512,0,397.385,0,256S114.615,0,256,0
	c70.693,0,134.684,28.663,181.008,74.992L512,0V192z"/>
</svg>
